<?xml version="1.0" encoding="UTF-8"?>
<svg version="1.1" xmlns="http://www.w3.org/2000/svg" width="327" height="361">
<path d="M0 0 C2.24419495 0.68876756 4.48916493 1.37501421 6.73484802 2.05891418 C12.62287086 3.85919454 18.50013053 5.69232974 24.37554932 7.53326416 C30.20730811 9.35466964 36.04819602 11.14623715 41.88867188 12.93945312 C48.7619266 15.05138349 55.63358755 17.16795147 62.49819946 19.30783081 C73.37095554 22.69580799 84.25279449 26.03490874 95.18310547 29.23291016 C97.19575903 29.82555719 99.20836897 30.41835238 101.22093201 31.01130676 C104.9468614 32.10851367 108.67788373 33.18525684 112.41297913 34.2507782 C114.07235132 34.73839681 115.73149941 35.22677894 117.39038086 35.71606445 C118.13213751 35.92118715 118.87389416 36.12630985 119.63812828 36.33764839 C124.39884256 37.7672614 127.20700284 39.62824241 130.37109375 43.45703125 C130.98632812 45.68823242 130.98632812 45.68823242 130.96484375 48 C130.96460205 48.89050049 130.96436035 49.78100098 130.96411133 50.69848633 C130.93341553 51.67068115 130.90271973 52.64287598 130.87109375 53.64453125 C130.85264404 54.68697998 130.83419434 55.72942871 130.81518555 56.8034668 C128.65337256 138.87494006 110.55668157 230.49480653 38.17382812 315.77099609 C28.77540622 324.56101528 18.20031032 331.57059735 7.37109375 338.45703125 C6.75862793 338.84810059 6.14616211 339.23916992 5.51513672 339.64208984 C-7.40542196 347.77507069 -24.97716142 357.96066451 -40.62890625 354.45703125 C-59.38902127 348.48933331 -77.41593927 337.85199739 -92.62890625 325.45703125 C-93.63695313 324.65136719 -94.645 323.84570312 -95.68359375 323.015625 C-109.61020002 311.69543072 -122.0168125 298.92171386 -132.62890625 284.45703125 C-133.27400146 283.59513184 -133.27400146 283.59513184 -133.93212891 282.71582031 C-139.75191651 274.93730435 -144.94879959 266.94869795 -149.57519531 258.39550781 C-150.69779819 256.33029307 -151.84716256 254.28113965 -152.99609375 252.23046875 C-177.70868536 207.44102015 -188.61127914 155.77902238 -194.62890625 105.45703125 C-194.71577698 104.77382812 -194.80264771 104.090625 -194.89215088 103.38671875 C-196.4690193 90.9027417 -197.00157641 78.54253708 -196.99951172 65.96240234 C-197.00398366 62.9040945 -197.0407546 59.84712598 -197.078125 56.7890625 C-197.08397764 54.83464028 -197.08795739 52.88021133 -197.08984375 50.92578125 C-197.10421478 50.01654907 -197.11858582 49.10731689 -197.13339233 48.17053223 C-197.08841564 42.03515205 -197.08841564 42.03515205 -195.09667969 39.52929688 C-191.68947879 38.04884314 -188.23975881 36.88621235 -184.68359375 35.83203125 C-183.42714302 35.44890778 -183.42714302 35.44890778 -182.14530945 35.05804443 C-179.26721652 34.18298944 -176.38562358 33.3200696 -173.50390625 32.45703125 C-171.42421647 31.82774736 -169.34471509 31.19784057 -167.26538086 30.56738281 C-160.95060696 28.65630461 -154.63192948 26.75835853 -148.31256104 24.86254883 C-143.09238371 23.29640647 -137.87310583 21.72727548 -132.65380859 20.15820312 C-110.84984131 13.60408177 -89.04248747 7.06131134 -67.23161316 0.5302124 C-66.39508744 0.27924931 -65.55856173 0.02828621 -64.69668674 -0.23028183 C-63.0861684 -0.71153865 -61.47459865 -1.18929326 -59.86191463 -1.66324234 C-56.84711128 -2.55227147 -53.88109098 -3.44759345 -50.93991089 -4.55993652 C-34.11536 -10.8369791 -16.25540984 -5.15464857 0 0 Z " fill="#ACACAC" transform="translate(196.62890625,6.54296875)"/>
<path d="M0 0 C2.30810648 80.653526 -15.91451811 176.37610448 -79.96044922 260.11279297 C-93.01535957 273.7939883 -107.06698031 284.86799402 -123 295 C-123.61246582 295.39106934 -124.22493164 295.78213867 -124.85595703 296.18505859 C-137.77651571 304.31803944 -155.34825517 314.50363326 -171 311 C-189.76011502 305.03230206 -207.78703302 294.39496614 -223 282 C-224.00804687 281.19433594 -225.01609375 280.38867188 -226.0546875 279.55859375 C-239.98129377 268.23839947 -252.38790625 255.46468261 -263 241 C-263.43006348 240.42540039 -263.86012695 239.85080078 -264.30322266 239.25878906 C-270.57893375 230.87090237 -275.99479656 222.19950799 -281 213 C-277.73423558 210.35239813 -274.41722784 207.82331873 -271 205.375 C-265.12890667 201.12514692 -259.38646257 196.719609 -253.65722656 192.28222656 C-252.02093025 191.01619412 -250.3821485 189.75346839 -248.7421875 188.4921875 C-247.93841675 187.87380005 -247.93841675 187.87380005 -247.1184082 187.24291992 C-246.04516544 186.41868113 -244.97079399 185.59590979 -243.89526367 184.7746582 C-241.04213091 182.59208735 -238.22171758 180.37848977 -235.43359375 178.11328125 C-234.84835938 177.64470703 -234.263125 177.17613281 -233.66015625 176.69335938 C-232.5359374 175.79219982 -231.41958517 174.8811118 -230.3125 173.95898438 C-226.63871082 171.03771435 -226.63871082 171.03771435 -223.94921875 170.87890625 C-221.00177837 172.57412747 -219.03872068 175.06027643 -216.875 177.625 C-205.95207328 189.99712881 -189.26591546 200.10913954 -172.41967773 201.16113281 C-155.42825303 201.6976656 -155.42825303 201.6976656 -139 198 C-138.01386719 197.64808594 -137.02773437 197.29617187 -136.01171875 196.93359375 C-117.42099952 189.77604874 -103.56950579 177.2767444 -95.125 159.25 C-87.98779546 142.34220855 -85.40009137 121.56198863 -92 104 C-92.29003906 103.22140625 -92.58007812 102.4428125 -92.87890625 101.640625 C-95.91987518 94.26086776 -100.13205209 87.31244284 -105 81 C-103.48448915 77.09799504 -101.23291823 75.41550521 -97.875 73 C-96.7874656 72.20743563 -95.70024242 71.4144441 -94.61328125 70.62109375 C-94.0301416 70.19940918 -93.44700195 69.77772461 -92.84619141 69.34326172 C-89.55880727 66.95140936 -86.31282611 64.5043377 -83.0625 62.0625 C-82.3804248 61.55138672 -81.69834961 61.04027344 -80.99560547 60.51367188 C-75.75039364 56.57882792 -70.55336831 52.58541513 -65.36328125 48.578125 C-58.29468337 43.14106927 -51.13143543 37.82622279 -43.98242188 32.49560547 C-40.77916551 30.10239448 -37.5915451 27.69440389 -34.4453125 25.2265625 C-33.89359375 24.79472656 -33.341875 24.36289063 -32.7734375 23.91796875 C-31.64858304 23.03567769 -30.52628977 22.15011393 -29.40625 21.26171875 C-25.22252565 18 -25.22252565 18 -23 18 C-23 17.34 -23 16.68 -23 16 C-21.68 15.67 -20.36 15.34 -19 15 C-19 14.34 -19 13.68 -19 13 C-17.68 12.67 -16.36 12.34 -15 12 C-15 11.34 -15 10.68 -15 10 C-13.63877622 9.04714336 -12.26908914 8.10450963 -10.86328125 7.21875 C-8.00902162 5.35181288 -5.33848157 3.25094582 -2.63671875 1.171875 C-1 0 -1 0 0 0 Z " fill="#494949" transform="translate(327,50)"/>
<path d="M0 0 C1.45592151 1.24968642 2.89616541 2.51811986 4.3125 3.8125 C4.87839844 4.32167969 5.44429688 4.83085938 6.02734375 5.35546875 C7.4375 6.6875 7.4375 6.6875 9.3125 8.8125 C9.3125 9.4725 9.3125 10.1325 9.3125 10.8125 C10.3025 11.1425 11.2925 11.4725 12.3125 11.8125 C26.06098161 29.96304764 29.77176775 50.20339519 26.81640625 72.56640625 C26.14607267 75.41058997 25.3300771 78.07444114 24.3125 80.8125 C23.96058594 81.79992187 23.60867187 82.78734375 23.24609375 83.8046875 C15.92593474 102.79361483 2.78759534 117.23452479 -15.6875 125.75 C-17.3465788 126.45561431 -19.01299845 127.14430948 -20.6875 127.8125 C-21.409375 128.14378906 -22.13125 128.47507813 -22.875 128.81640625 C-31.04887311 131.71131964 -39.14490208 132.12773132 -47.75 132.0625 C-48.77416016 132.07023438 -49.79832031 132.07796875 -50.85351562 132.0859375 C-70.81056558 132.03492907 -86.81552144 122.88191991 -101.05859375 109.4609375 C-114.47642394 95.94342061 -120.44638781 77.20747852 -121 58.5 C-120.58471974 37.00924665 -112.45277077 18.84250458 -97.22705078 3.81323242 C-70.1175517 -21.8733924 -29.05087118 -22.73359594 0 0 Z " fill="#D1D1D1" transform="translate(211.6875,120.1875)"/>
<path d="M0 0 C8.69504651 5.16537416 15.40336659 13.14263811 18 23 C18.265625 26.4375 18.265625 26.4375 18.25 30 C18.25773437 31.7634375 18.25773437 31.7634375 18.265625 33.5625 C18 37 18 37 16.921875 40.0625 C15.77787865 43.7077765 15.91516136 45.32526117 17 49 C18.88571878 51.54702625 21.11700702 53.67596955 23.40625 55.859375 C24.04614868 56.48982727 24.68604736 57.12027954 25.34533691 57.76983643 C27.38539393 59.77538049 29.44185344 61.76303963 31.5 63.75 C33.55456167 65.75462607 35.60561501 67.76274956 37.65466309 69.77301025 C38.92942757 71.02133251 40.20805506 72.26572431 41.49084473 73.50579834 C46.96219407 78.82347955 46.96219407 78.82347955 47.09765625 83.0390625 C47.08605469 84.22242188 47.07445312 85.40578125 47.0625 86.625 C47.05347656 87.81351562 47.04445313 89.00203125 47.03515625 90.2265625 C47.02355469 91.14179688 47.01195312 92.05703125 47 93 C43.02084841 93.02886984 39.04172347 93.04675406 35.0625 93.0625 C33.35803711 93.07506836 33.35803711 93.07506836 31.61914062 93.08789062 C30.53955078 93.09111328 29.45996094 93.09433594 28.34765625 93.09765625 C26.84730835 93.10551147 26.84730835 93.10551147 25.31665039 93.11352539 C23 93 23 93 22 92 C21.60851239 90.48834346 21.26027543 88.96530368 20.9375 87.4375 C20.67259766 86.19806641 20.67259766 86.19806641 20.40234375 84.93359375 C20.26957031 84.29550781 20.13679688 83.65742188 20 83 C19.36191406 82.86722656 18.72382813 82.73445313 18.06640625 82.59765625 C16.82697266 82.33275391 16.82697266 82.33275391 15.5625 82.0625 C14.73878906 81.88847656 13.91507813 81.71445313 13.06640625 81.53515625 C11 81 11 81 10 80 C9.76807135 78.48530552 9.58784762 76.96245438 9.4375 75.4375 C9.35371094 74.61121094 9.26992187 73.78492188 9.18359375 72.93359375 C9.12300781 72.29550781 9.06242187 71.65742188 9 71 C8.35933594 70.98582031 7.71867187 70.97164063 7.05859375 70.95703125 C-0.86429817 70.52015047 -0.86429817 70.52015047 -4.25 67.5 C-8.50811152 63.96839092 -13.24688688 64.44219197 -18.56640625 64.22265625 C-26.75633654 63.69156862 -33.80962045 60.36266401 -40 55 C-48.20654158 45.34524519 -50.14242314 35.32792489 -49.24560547 22.97363281 C-48.14413637 14.12246363 -41.73498324 7.33755302 -35 2 C-24.64778122 -4.82704105 -11.20434712 -5.31731728 0 0 Z " fill="#919191" transform="translate(162,130)"/>
<path d="M0 0 C2 1.75 2 1.75 3 4 C2.91860583 7.25576675 2.21633825 8.71412445 0.25 11.3125 C-2 13 -2 13 -4.5 13.5 C-7.90524375 12.81895125 -9.02547983 11.8520847 -11 9 C-11.5 5.4375 -11.5 5.4375 -11 2 C-7.89207752 -1.97814077 -4.55239669 -1.24156273 0 0 Z " fill="#C2C2C2" transform="translate(142,143)"/>
<path d="M0 0 C2.06655129 3.09982693 3.20252638 5.9525175 4.5 9.4375 C5.85083089 13.05756205 7.18736197 16.58452001 9 20 C8.01 20 7.02 20 6 20 C4.98609147 17.79716302 3.98895615 15.58901444 3 13.375 C2.71382812 12.75753906 2.42765625 12.14007813 2.1328125 11.50390625 C0.36170081 7.49782029 -0.32255965 4.36799531 0 0 Z " fill="#C3C3C3" transform="translate(30,224)"/>
<path d="M0 0 C1.7208877 2.58133154 2.4651263 4.12794206 3.2890625 7.01171875 C3.50820313 7.76904297 3.72734375 8.52636719 3.953125 9.30664062 C4.17484375 10.09232422 4.3965625 10.87800781 4.625 11.6875 C4.85445312 12.48478516 5.08390625 13.28207031 5.3203125 14.10351562 C5.88486236 16.0676787 6.44304988 18.03366847 7 20 C6.01 19.67 5.02 19.34 4 19 C3.20043945 17.23413086 3.20043945 17.23413086 2.61328125 14.96484375 C2.39736328 14.15595703 2.18144531 13.34707031 1.95898438 12.51367188 C1.63897461 11.2384668 1.63897461 11.2384668 1.3125 9.9375 C1.08755859 9.08349609 0.86261719 8.22949219 0.63085938 7.34960938 C0.07582695 5.23576247 -0.46719069 3.11953756 -1 1 C-0.67 0.67 -0.34 0.34 0 0 Z " fill="#C3C3C3" transform="translate(16,182)"/>
<path d="M0 0 C2.35716404 2.15454249 3.78966144 4.19719874 5.1875 7.0625 C5.53167969 7.75472656 5.87585937 8.44695312 6.23046875 9.16015625 C7 11 7 11 7 13 C7.99 13.33 8.98 13.66 10 14 C10 14.66 10 15.32 10 16 C9.01 16 8.02 16 7 16 C5.82845707 13.71070947 4.66261926 11.41881638 3.5 9.125 C3.16613281 8.47402344 2.83226562 7.82304687 2.48828125 7.15234375 C0 2.2265625 0 2.2265625 0 0 Z " fill="#BBBBBB" transform="translate(38,246)"/>
<path d="M0 0 C2.56616632 3.84924948 2.55097676 6.4349304 3 11 C2.34 11 1.68 11 1 11 C-0.17571451 7.32589215 -0.07366746 3.83070817 0 0 Z " fill="#C1C1C1" transform="translate(1,96)"/>
</svg>
